# Blender 3.1.2
# www.blender.org
mtllib enemy.mtl
o 円柱.001
v 0.000000 2.496011 -0.151742
v 0.029603 -0.000096 -0.148827
v 0.000000 -0.000096 -0.151743
v 0.029603 2.496011 -0.148826
v 0.058069 -0.000096 -0.140192
v 0.058069 2.496011 -0.140191
v 0.084304 -0.000096 -0.126169
v 0.084304 2.496011 -0.126168
v 0.107299 -0.000096 -0.107299
v 0.107299 2.496011 -0.107297
v 0.126169 -0.000096 -0.084304
v 0.126169 2.496011 -0.084303
v 0.140192 -0.000096 -0.058069
v 0.140192 2.496011 -0.058068
v 0.148827 -0.000096 -0.029603
v 0.148827 2.496011 -0.029602
v 0.151743 -0.000096 -0.000000
v 0.151743 2.496011 0.000001
v 0.148827 -0.000096 0.029603
v 0.148827 2.496011 0.029605
v 0.140192 -0.000096 0.058069
v 0.140192 2.496011 0.058070
v 0.126170 -0.000096 0.084304
v 0.126170 2.496011 0.084305
v 0.107299 -0.000096 0.107299
v 0.107299 2.496011 0.107300
v 0.084304 -0.000096 0.126170
v 0.084304 2.496011 0.126171
v 0.058069 -0.000096 0.140192
v 0.058069 2.496011 0.140194
v 0.029603 -0.000096 0.148827
v 0.029603 2.496011 0.148829
v 0.000000 -0.000096 0.151743
v 0.000000 2.496011 0.151744
v -0.029603 -0.000096 0.148827
v -0.029603 2.496011 0.148829
v -0.058069 -0.000096 0.140192
v -0.058069 2.496011 0.140194
v -0.084304 -0.000096 0.126169
v -0.084304 2.496011 0.126170
v -0.107299 -0.000096 0.107299
v -0.107299 2.496011 0.107300
v -0.126169 -0.000096 0.084304
v -0.126169 2.496011 0.084305
v -0.140192 -0.000096 0.058069
v -0.140192 2.496011 0.058070
v -0.148827 -0.000096 0.029603
v -0.148827 2.496011 0.029605
v -0.151743 -0.000096 -0.000000
v -0.151743 2.496011 0.000001
v -0.148827 -0.000096 -0.029603
v -0.148827 2.496011 -0.029602
v -0.140192 -0.000096 -0.058069
v -0.140192 2.496011 -0.058068
v -0.126170 -0.000096 -0.084304
v -0.126170 2.496011 -0.084303
v -0.107299 -0.000096 -0.107299
v -0.107299 2.496011 -0.107297
v -0.084304 -0.000096 -0.126169
v -0.084304 2.496011 -0.126168
v -0.058069 -0.000096 -0.140192
v -0.058069 2.496011 -0.140191
v -0.029603 -0.000096 -0.148827
v -0.029603 2.496011 -0.148826
v -0.739224 3.990654 -0.264989
v -0.589907 3.615114 -0.523046
v -0.739224 3.615114 -0.264989
v 0.294863 3.990654 -0.719130
v 0.592255 3.615114 -0.538296
v 0.294863 3.615114 -0.719130
v 0.701978 3.990654 0.319980
v 0.536174 3.615114 0.597843
v 0.701978 3.615114 0.319980
v -0.313871 3.990654 0.747769
v -0.572368 3.615114 0.575836
v -0.313871 3.615114 0.747769
v 0.384051 2.488497 0.384052
v 0.536174 2.488497 0.597843
v 0.332789 2.488497 0.718164
v -0.384051 3.990654 0.384053
v -0.572368 3.990654 0.575836
v -0.384051 3.990654 0.000001
v -0.384051 3.990654 -0.384050
v 0.720450 2.488497 -0.311536
v 0.384051 2.488497 0.000001
v 0.384051 2.488497 -0.384050
v 0.720450 3.990654 -0.311536
v 0.768102 3.615114 0.000001
v 0.720450 3.615114 -0.311536
v -0.723380 3.990654 0.298404
v -0.768102 3.615114 0.000001
v -0.723380 3.615114 0.298404
v 0.000000 2.488497 -0.384050
v -0.384051 2.488497 0.000001
v -0.384051 2.488497 -0.384050
v 0.000000 3.990654 -0.384050
v 0.384051 3.990654 0.000001
v 0.384051 3.990654 -0.384050
v 0.000000 3.990654 0.384053
v 0.332789 3.990654 0.718165
v 0.384051 3.990654 0.384053
v 0.000000 2.488497 0.384052
v -0.313871 2.488497 0.747769
v -0.384051 2.488497 0.384052
v 0.000000 3.615114 0.768103
v 0.332789 3.615114 0.718165
v -0.303893 3.990654 -0.720811
v 0.000000 3.615115 -0.768101
v -0.303893 3.615114 -0.720811
v -0.303893 2.488497 -0.720811
v 0.592255 3.990654 -0.538296
v 0.592255 2.488497 -0.538296
v 0.294863 2.488497 -0.719130
v -0.589907 3.990654 -0.523046
v -0.768102 3.990654 0.000001
v 0.000000 2.488497 0.000001
v 0.000000 3.990654 0.000001
v 0.701978 2.488497 0.319979
v 0.768102 3.990654 0.000001
v -0.723380 2.488497 0.298404
v -0.768102 2.488497 0.000001
v 0.000000 3.990654 -0.768101
v -0.589907 2.488497 -0.523046
v -0.739224 2.488497 -0.264989
v -0.572368 2.488497 0.575836
v 0.000000 3.990654 0.768104
v 0.000000 2.488497 -0.768101
v 0.536174 3.990654 0.597843
v 0.000000 2.488497 0.768103
v 0.000000 3.239576 -0.768101
v 0.294863 2.864036 -0.719130
v 0.000000 2.864037 -0.768101
v 0.536174 3.239575 0.597843
v 0.332789 2.864036 0.718164
v 0.536174 2.864036 0.597843
v 0.000000 3.239575 0.768103
v -0.313871 2.864036 0.747769
v 0.000000 2.864036 0.768103
v -0.589907 3.239575 -0.523046
v -0.303893 2.864036 -0.720811
v -0.589907 2.864036 -0.523046
v 0.768102 3.239575 0.000001
v 0.701978 2.864036 0.319980
v 0.768102 2.864036 0.000001
v -0.572368 3.239575 0.575836
v -0.723380 2.864036 0.298404
v -0.572368 2.864036 0.575836
v -0.768102 3.239575 0.000001
v -0.739224 2.864036 -0.264989
v -0.768102 2.864036 0.000001
v 0.592255 3.239575 -0.538296
v 0.720450 2.864036 -0.311536
v 0.592255 2.864036 -0.538296
v -0.303893 3.239575 -0.720811
v 0.332789 3.239575 0.718165
v -0.723380 3.239575 0.298404
v 0.720450 3.239575 -0.311536
v -0.313871 3.239575 0.747769
v 0.701978 3.239575 0.319980
v 0.294863 3.239575 -0.719130
v -0.739224 3.239575 -0.264989
v 0.768102 2.488497 0.000001
vn 0.0980 -0.0000 -0.9952
vn 0.2903 -0.0000 -0.9569
vn 0.4714 -0.0000 -0.8819
vn 0.6344 -0.0000 -0.7730
vn 0.7730 -0.0000 -0.6344
vn 0.8819 -0.0000 -0.4714
vn 0.9569 -0.0000 -0.2903
vn 0.9952 -0.0000 -0.0980
vn 0.9952 -0.0000 0.0980
vn 0.9569 -0.0000 0.2903
vn 0.8819 -0.0000 0.4714
vn 0.7730 -0.0000 0.6344
vn 0.6344 -0.0000 0.7730
vn 0.4714 -0.0000 0.8819
vn 0.2903 -0.0000 0.9569
vn 0.0980 -0.0000 0.9952
vn -0.0980 -0.0000 0.9952
vn -0.2903 -0.0000 0.9569
vn -0.4714 -0.0000 0.8819
vn -0.6344 -0.0000 0.7730
vn -0.7730 -0.0000 0.6344
vn -0.8819 -0.0000 0.4714
vn -0.9569 -0.0000 0.2903
vn -0.9952 -0.0000 0.0980
vn -0.9952 -0.0000 -0.0980
vn -0.9569 -0.0000 -0.2903
vn -0.8819 -0.0000 -0.4714
vn -0.7730 -0.0000 -0.6344
vn -0.6344 -0.0000 -0.7730
vn -0.4714 -0.0000 -0.8819
vn -0.0000 1.0000 -0.0000
vn -0.2903 -0.0000 -0.9569
vn -0.0980 -0.0000 -0.9952
vn -0.0000 -1.0000 -0.0000
vn -0.0000 1.0000 -0.0001
vn -0.8655 -0.0000 -0.5008
vn 0.5196 -0.0000 -0.8544
vn 0.8587 -0.0000 0.5124
vn -0.5538 -0.0000 0.8326
vn 0.9885 -0.0000 -0.1512
vn -0.9890 -0.0000 0.1482
vn 0.1484 -0.0000 0.9889
vn -0.1538 -0.0000 -0.9881
vn 0.8705 -0.0000 -0.4921
vn -0.9941 -0.0000 -0.1083
vn -0.8783 -0.0000 0.4781
vn 0.9793 -0.0000 0.2024
vn -0.5687 -0.0000 -0.8225
vn -0.0647 -0.0000 0.9979
vn 0.5092 -0.0000 0.8607
vn 0.1638 -0.0000 -0.9865
vt 0.005491 0.184574
vt 0.894837 0.574340
vt 0.867230 0.287170
vt 0.000000 0.442755
vt 0.894837 0.287170
vt 0.005491 0.470361
vt 0.867230 0.574340
vt 0.016263 0.210579
vt 0.841225 0.287170
vt 0.000000 0.414607
vt 0.841225 0.574340
vt 0.031901 0.233983
vt 0.771859 0.574340
vt 0.817821 0.287170
vt 0.005491 0.387000
vt 0.817821 0.574340
vt 0.771859 0.861510
vt 0.051804 0.253886
vt 0.751956 0.574340
vt 0.016263 0.360995
vt 0.751956 0.861510
vt 0.075208 0.269524
vt 0.728552 0.574340
vt 0.031901 0.337591
vt 0.728552 0.861510
vt 0.101213 0.280296
vt 0.702547 0.574340
vt 0.051804 0.317688
vt 0.702547 0.861510
vt 0.128820 0.285787
vt 0.674940 0.574340
vt 0.075208 0.302050
vt 0.674940 0.861510
vt 0.156967 0.285787
vt 0.646793 0.574340
vt 0.101213 0.291278
vt 0.646793 0.861510
vt 0.184574 0.280296
vt 0.619186 0.574340
vt 0.128820 0.285787
vt 0.619186 0.861510
vt 0.210579 0.269524
vt 0.593181 0.574340
vt 0.156967 0.285787
vt 0.593181 0.861510
vt 0.233983 0.253886
vt 0.973941 0.574340
vt 0.569777 0.574340
vt 0.184574 0.291278
vt 0.569777 0.861510
vt 0.973941 0.861510
vt 0.253886 0.233983
vt 0.950538 0.574340
vt 0.210579 0.302050
vt 0.950538 0.861510
vt 0.269524 0.210579
vt 0.924533 0.574340
vt 0.233983 0.317688
vt 0.924533 0.861510
vt 0.280296 0.184574
vt 0.896926 0.574340
vt 0.253886 0.337591
vt 0.896926 0.861510
vt 0.285787 0.156967
vt 0.868778 0.574340
vt 0.269524 0.360995
vt 0.868778 0.861510
vt 0.285787 0.128820
vt 0.841172 0.574340
vt 0.280296 0.387000
vt 0.841172 0.861510
vt 0.280296 0.101213
vt 0.815167 0.574340
vt 0.285787 0.414607
vt 0.815167 0.861510
vt 0.269524 0.075208
vt 0.791763 0.574340
vt 0.285787 0.442754
vt 0.791763 0.861510
vt 0.253886 0.051804
vt 0.221985 0.571574
vt 0.771859 0.574340
vt 0.280296 0.470361
vt 0.771859 0.861510
vt 0.221985 0.858744
vt 0.233983 0.031901
vt 0.202082 0.571574
vt 0.269524 0.496366
vt 0.202082 0.858744
vt 0.210579 0.016263
vt 0.178678 0.571574
vt 0.253886 0.519770
vt 0.178678 0.858744
vt 0.184574 0.005491
vt 0.152673 0.571574
vt 0.233983 0.539673
vt 0.152673 0.858744
vt 0.156967 0.000000
vt 0.125066 0.571574
vt 0.210579 0.555311
vt 0.125066 0.858744
vt 0.128820 0.000000
vt 0.096919 0.571574
vt 0.184574 0.566083
vt 0.096919 0.858744
vt 0.101213 0.005491
vt 0.069312 0.571574
vt 0.156967 0.571574
vt 0.069312 0.858744
vt 0.075208 0.016263
vt 0.043307 0.571574
vt 0.128820 0.571574
vt 0.043307 0.858744
vt 0.051804 0.031901
vt 0.019903 0.571574
vt 0.101213 0.566083
vt 0.019903 0.858744
vt 0.031901 0.051804
vt 1.000000 0.287170
vt 0.000000 0.571574
vt 0.075208 0.555311
vt 0.000000 0.858744
vt 1.000000 0.574340
vt 0.016263 0.075208
vt 0.976596 0.287170
vt 0.051804 0.539673
vt 0.976596 0.574340
vt 0.005491 0.101213
vt 0.950591 0.287170
vt 0.031901 0.519770
vt 0.000000 0.128820
vt 0.950591 0.574340
vt 0.922984 0.287170
vt 0.016263 0.496366
vt 0.000000 0.156967
vt 0.922984 0.574340
vt 0.358288 0.012700
vt 0.337866 0.855171
vt 0.817821 0.502547
vt 0.285787 0.783379
vt 0.337866 0.783379
vt 0.303020 0.216465
vt 0.661996 0.574340
vt 0.601132 0.502547
vt 0.661996 0.502547
vt 0.772781 0.287170
vt 0.506409 0.262900
vt 0.718638 0.215377
vt 0.772781 0.215377
vt 0.512054 0.855171
vt 0.557311 0.063238
vt 0.569777 0.287170
vt 0.488045 0.783379
vt 0.569777 0.215377
vt 0.512054 0.783379
vt 0.509434 0.365652
vt 0.553176 0.343461
vt 0.718638 0.000000
vt 0.569777 0.384397
vt 0.674493 0.000000
vt 0.488126 0.060354
vt 0.518356 0.020220
vt 0.488045 0.855171
vt 0.417128 0.071008
vt 0.346131 0.081662
vt 0.839461 0.000000
vt 0.390176 0.284168
vt 0.569777 0.287170
vt 0.438436 0.354998
vt 0.367439 0.344344
vt 0.839461 0.287170
vt 0.569777 0.574340
vt 0.390176 0.283834
vt 0.815497 0.215377
vt 0.569777 0.502547
vt 0.839461 0.215377
vt 0.441358 0.855171
vt 0.462879 0.000000
vt 0.387628 0.783379
vt 0.441358 0.783379
vt 0.356785 0.415342
vt 0.417128 0.496993
vt 0.346131 0.486339
vt 0.356785 0.152659
vt 0.438436 0.213003
vt 0.367439 0.223657
vt 0.498780 0.131352
vt 0.674493 0.287170
vt 0.569777 0.183604
vt 0.509434 0.202349
vt 0.498780 0.436650
vt 0.512054 0.568001
vt 0.557311 0.504763
vt 0.569777 0.000000
vt 0.488126 0.507647
vt 0.617099 0.215377
vt 0.674493 0.215377
vt 0.286099 0.105822
vt 0.772071 0.574340
vt 0.717860 0.502547
vt 0.772071 0.502547
vt 0.286099 0.462179
vt 0.772071 0.287170
vt 0.601132 0.574340
vt 0.344700 0.266426
vt 0.344700 0.301576
vt 0.601132 0.287170
vt 0.303020 0.351537
vt 0.661996 0.287170
vt 0.285787 0.855171
vt 0.314725 0.047462
vt 0.817821 0.574340
vt 0.387628 0.855171
vt 0.406474 0.000010
vt 0.427782 0.425996
vt 0.427782 0.142006
vt 0.506409 0.305101
vt 0.772781 0.000000
vt 0.449090 0.284001
vt 0.815497 0.287170
vt 0.462879 0.568001
vt 0.441358 0.568001
vt 0.406474 0.567991
vt 0.387628 0.568001
vt 0.285787 0.163313
vt 0.717860 0.574340
vt 0.817821 0.287170
vt 0.314725 0.520539
vt 0.285787 0.568001
vt 0.358288 0.555301
vt 0.337866 0.568001
vt 0.518356 0.547781
vt 0.488045 0.568001
vt 0.569777 0.120698
vt 0.617099 0.287170
vt 0.285787 0.404688
vt 0.717860 0.287170
vt 0.718638 0.287170
vt 0.553176 0.224541
vt 0.569777 0.447304
vt 0.617099 0.000000
vt 0.717860 0.430755
vt 0.661996 0.358962
vt 0.717860 0.358962
vt 0.718638 0.143585
vt 0.674493 0.071792
vt 0.718638 0.071792
vt 0.617099 0.143585
vt 0.512054 0.639794
vt 0.569777 0.071792
vt 0.617099 0.071792
vt 0.817821 0.430755
vt 0.285787 0.711586
vt 0.772071 0.358962
vt 0.285787 0.639794
vt 0.817821 0.358962
vt 0.815497 0.143585
vt 0.772781 0.071792
vt 0.815497 0.071792
vt 0.488045 0.711586
vt 0.441358 0.639794
vt 0.488045 0.639794
vt 0.387628 0.711586
vt 0.337866 0.639794
vt 0.387628 0.639794
vt 0.601132 0.430755
vt 0.839461 0.071792
vt 0.569777 0.358962
vt 0.601132 0.358962
vt 0.772071 0.430755
vt 0.674493 0.143585
vt 0.441358 0.711586
vt 0.839461 0.143585
vt 0.569777 0.430755
vt 0.512054 0.711586
vt 0.569777 0.143585
vt 0.772781 0.143585
vt 0.661996 0.430755
vt 0.337866 0.711586
vt 0.449090 0.284001
vt 0.815497 0.000000
s 1
usemtl マテリアル.004
f 1/2/1 2/3/1 3/5/1
f 4/7/2 5/9/2 2/3/2
f 6/11/3 7/14/3 5/9/3
f 8/17/4 9/19/4 7/13/4
f 10/21/5 11/23/5 9/19/5
f 12/25/6 13/27/6 11/23/6
f 14/29/7 15/31/7 13/27/7
f 16/33/8 17/35/8 15/31/8
f 18/37/9 19/39/9 17/35/9
f 20/41/10 21/43/10 19/39/10
f 22/45/11 23/48/11 21/43/11
f 24/51/12 25/53/12 23/47/12
f 26/55/13 27/57/13 25/53/13
f 28/59/14 29/61/14 27/57/14
f 30/63/15 31/65/15 29/61/15
f 32/67/16 33/69/16 31/65/16
f 34/71/17 35/73/17 33/69/17
f 36/75/18 37/77/18 35/73/18
f 38/79/19 39/82/19 37/77/19
f 40/85/20 41/87/20 39/81/20
f 42/89/21 43/91/21 41/87/21
f 44/93/22 45/95/22 43/91/22
f 46/97/23 47/99/23 45/95/23
f 48/101/24 49/103/24 47/99/24
f 50/105/25 51/107/25 49/103/25
f 52/109/26 53/111/26 51/107/26
f 54/113/27 55/115/27 53/111/27
f 56/117/28 57/120/28 55/115/28
f 58/123/29 59/125/29 57/119/29
f 60/127/30 61/129/30 59/125/30
f 54/114/31 38/80/31 22/46/31
f 62/132/32 63/133/32 61/129/32
f 64/136/33 3/5/33 63/133/33
f 15/32/34 31/66/34 47/100/34
f 1/2/1 4/7/1 2/3/1
f 4/7/2 6/11/2 5/9/2
f 6/11/3 8/16/3 7/14/3
f 8/17/4 10/21/4 9/19/4
f 10/21/5 12/25/5 11/23/5
f 12/25/6 14/29/6 13/27/6
f 14/29/7 16/33/7 15/31/7
f 16/33/8 18/37/8 17/35/8
f 18/37/9 20/41/9 19/39/9
f 20/41/10 22/45/10 21/43/10
f 22/45/11 24/50/11 23/48/11
f 24/51/12 26/55/12 25/53/12
f 26/55/13 28/59/13 27/57/13
f 28/59/14 30/63/14 29/61/14
f 30/63/15 32/67/15 31/65/15
f 32/67/16 34/71/16 33/69/16
f 34/71/17 36/75/17 35/73/17
f 36/75/18 38/79/18 37/77/18
f 38/79/19 40/84/19 39/82/19
f 40/85/20 42/89/20 41/87/20
f 42/89/21 44/93/21 43/91/21
f 44/93/22 46/97/22 45/95/22
f 46/97/23 48/101/23 47/99/23
f 48/101/24 50/105/24 49/103/24
f 50/105/25 52/109/25 51/107/25
f 52/109/26 54/113/26 53/111/26
f 54/113/27 56/117/27 55/115/27
f 56/117/28 58/122/28 57/120/28
f 58/123/29 60/127/29 59/125/29
f 60/127/30 62/132/30 61/129/30
f 6/12/31 4/8/31 62/131/31
f 4/8/31 1/1/35 62/131/31
f 1/1/35 64/135/31 62/131/31
f 62/131/31 60/128/31 58/124/35
f 58/124/35 56/118/31 62/131/31
f 56/118/31 54/114/31 62/131/31
f 54/114/31 52/110/31 50/106/31
f 50/106/31 48/102/31 46/98/31
f 46/98/31 44/94/31 42/90/31
f 42/90/31 40/86/31 38/80/31
f 38/80/31 36/76/31 34/72/31
f 34/72/31 32/68/31 30/64/31
f 30/64/31 28/60/31 26/56/31
f 26/56/31 24/52/31 22/46/31
f 22/46/31 20/42/31 18/38/31
f 18/38/31 16/34/31 14/30/31
f 14/30/31 12/26/31 10/22/31
f 10/22/31 8/18/31 6/12/31
f 54/114/31 50/106/31 38/80/31
f 50/106/31 46/98/31 38/80/31
f 46/98/31 42/90/31 38/80/31
f 38/80/31 34/72/31 30/64/31
f 30/64/31 26/56/31 38/80/31
f 26/56/31 22/46/31 38/80/31
f 22/46/31 18/38/31 6/12/31
f 18/38/31 14/30/31 6/12/31
f 14/30/31 10/22/31 6/12/31
f 6/12/31 62/131/31 54/114/31
f 6/12/31 54/114/31 22/46/31
f 62/132/32 64/136/32 63/133/32
f 64/136/33 1/2/33 3/5/33
f 63/134/34 3/6/34 2/4/34
f 2/4/34 5/10/34 7/15/34
f 7/15/34 9/20/34 11/24/34
f 11/24/34 13/28/34 15/32/34
f 15/32/34 17/36/34 19/40/34
f 19/40/34 21/44/34 23/49/34
f 23/49/34 25/54/34 27/58/34
f 27/58/34 29/62/34 31/66/34
f 31/66/34 33/70/34 35/74/34
f 35/74/34 37/78/34 39/83/34
f 39/83/34 41/88/34 43/92/34
f 43/92/34 45/96/34 47/100/34
f 47/100/34 49/104/34 51/108/34
f 51/108/34 53/112/34 47/100/34
f 53/112/34 55/116/34 47/100/34
f 55/116/34 57/121/34 59/126/34
f 59/126/34 61/130/34 55/116/34
f 61/130/34 63/134/34 55/116/34
f 63/134/34 2/4/34 15/32/34
f 2/4/34 7/15/34 15/32/34
f 7/15/34 11/24/34 15/32/34
f 15/32/34 19/40/34 23/49/34
f 23/49/34 27/58/34 15/32/34
f 27/58/34 31/66/34 15/32/34
f 31/66/34 35/74/34 47/100/34
f 35/74/34 39/83/34 47/100/34
f 39/83/34 43/92/34 47/100/34
f 47/100/34 55/116/34 63/134/34
f 63/134/34 15/32/34 47/100/34
usemtl マテリアル.005
f 65/138/36 66/140/36 67/141/36
f 68/143/37 69/144/37 70/145/37
f 71/146/38 72/148/38 73/149/38
f 74/150/39 75/153/39 76/155/39
f 77/156/34 78/157/34 79/159/34
f 80/161/31 81/162/31 74/151/31
f 65/137/31 82/164/31 83/165/31
f 84/167/34 85/169/34 86/170/34
f 87/171/40 88/174/40 89/176/40
f 90/177/41 91/179/41 92/180/41
f 93/181/34 94/182/34 95/183/34
f 96/184/31 97/185/31 98/186/31
f 99/187/31 100/189/31 101/190/31
f 102/191/34 103/193/34 104/195/34
f 100/188/42 105/196/42 106/197/42
f 107/199/43 108/200/43 109/201/43
f 68/142/31 96/184/31 98/186/31
f 110/202/34 93/181/34 95/183/34
f 111/204/44 89/175/44 69/144/44
f 112/206/34 86/170/34 113/208/34
f 114/211/31 83/165/31 107/198/31
f 115/213/45 67/141/45 91/179/45
f 116/215/34 104/195/34 94/182/34
f 117/216/31 101/190/31 97/185/31
f 81/163/46 92/180/46 75/153/46
f 82/164/31 90/178/31 80/161/31
f 85/169/34 118/217/34 77/156/34
f 119/220/47 73/149/47 88/174/47
f 82/164/31 99/187/31 117/216/31
f 94/182/34 120/221/34 121/223/34
f 107/198/31 96/184/31 122/225/31
f 123/228/34 95/183/34 124/230/34
f 114/212/48 109/201/48 66/139/48
f 104/195/34 125/232/34 120/221/34
f 124/230/34 94/182/34 121/223/34
f 83/165/31 117/216/31 96/184/31
f 99/187/31 74/151/31 126/234/31
f 126/235/49 76/154/49 105/196/49
f 85/169/34 102/191/34 116/215/34
f 97/185/31 71/147/31 119/219/31
f 113/208/34 93/181/34 127/236/34
f 111/205/31 98/186/31 87/173/31
f 128/238/50 106/197/50 72/148/50
f 101/190/31 128/239/31 71/147/31
f 87/173/31 97/185/31 119/219/31
f 86/170/34 116/215/34 93/181/34
f 102/191/34 79/159/34 129/240/34
f 122/226/51 70/145/51 108/200/51
f 130/242/51 131/243/51 132/244/51
f 133/245/50 134/246/50 135/247/50
f 136/248/49 137/250/49 138/251/49
f 139/252/48 140/254/48 141/256/48
f 142/257/47 143/258/47 144/259/47
f 145/260/46 146/261/46 147/262/46
f 148/263/45 149/264/45 150/265/45
f 151/266/44 152/268/44 153/269/44
f 154/270/43 132/244/43 140/254/43
f 155/271/42 138/251/42 134/246/42
f 156/272/41 150/265/41 146/261/41
f 157/273/40 144/259/40 152/267/40
f 158/275/39 147/262/39 137/249/39
f 159/277/38 135/247/38 143/258/38
f 160/278/37 153/269/37 131/243/37
f 161/279/36 141/255/36 149/264/36
f 108/200/51 160/278/51 130/242/51
f 72/148/50 155/271/50 133/245/50
f 105/196/49 158/276/49 136/248/49
f 66/139/48 154/270/48 139/252/48
f 88/174/47 159/277/47 142/257/47
f 75/153/46 156/272/46 145/260/46
f 91/179/45 161/279/45 148/263/45
f 69/144/44 157/274/44 151/266/44
f 109/201/43 130/242/43 154/270/43
f 106/197/42 136/248/42 155/271/42
f 92/180/41 148/263/41 156/272/41
f 89/176/40 142/257/40 157/273/40
f 76/155/39 145/260/39 158/275/39
f 73/149/38 133/245/38 159/277/38
f 70/145/37 151/266/37 160/278/37
f 67/141/36 139/253/36 161/279/36
f 149/264/36 123/229/36 124/231/36
f 131/243/37 112/207/37 113/209/37
f 143/258/38 78/158/38 118/218/38
f 137/249/39 125/233/39 103/192/39
f 152/267/40 162/281/40 84/166/40
f 146/261/41 121/224/41 120/222/41
f 134/246/42 129/241/42 79/160/42
f 140/254/43 127/237/43 110/203/43
f 153/269/44 84/168/44 112/207/44
f 150/265/45 124/231/45 121/224/45
f 147/262/46 120/222/46 125/233/46
f 144/259/47 118/218/47 162/281/47
f 141/256/48 110/203/48 123/227/48
f 138/251/49 103/194/49 129/241/49
f 135/247/50 79/160/50 78/158/50
f 132/244/51 113/209/51 127/237/51
f 65/138/36 114/210/36 66/140/36
f 68/143/37 111/204/37 69/144/37
f 71/146/38 128/238/38 72/148/38
f 74/150/39 81/163/39 75/153/39
f 77/156/34 118/217/34 78/157/34
f 80/161/31 90/178/31 81/162/31
f 65/137/31 115/214/31 82/164/31
f 84/167/34 162/280/34 85/169/34
f 87/171/40 119/220/40 88/174/40
f 90/177/41 115/213/41 91/179/41
f 93/181/34 116/215/34 94/182/34
f 96/184/31 117/216/31 97/185/31
f 99/187/31 126/234/31 100/189/31
f 102/191/34 129/240/34 103/193/34
f 100/188/42 126/235/42 105/196/42
f 107/199/43 122/226/43 108/200/43
f 68/142/31 122/225/31 96/184/31
f 110/202/34 127/236/34 93/181/34
f 111/204/44 87/172/44 89/175/44
f 112/206/34 84/167/34 86/170/34
f 114/211/31 65/137/31 83/165/31
f 115/213/45 65/138/45 67/141/45
f 116/215/34 102/191/34 104/195/34
f 117/216/31 99/187/31 101/190/31
f 81/163/46 90/177/46 92/180/46
f 82/164/31 115/214/31 90/178/31
f 85/169/34 162/280/34 118/217/34
f 119/220/47 71/146/47 73/149/47
f 82/164/31 80/161/31 99/187/31
f 94/182/34 104/195/34 120/221/34
f 107/198/31 83/165/31 96/184/31
f 123/228/34 110/202/34 95/183/34
f 114/212/48 107/199/48 109/201/48
f 104/195/34 103/193/34 125/232/34
f 124/230/34 95/183/34 94/182/34
f 83/165/31 82/164/31 117/216/31
f 99/187/31 80/161/31 74/151/31
f 126/235/49 74/152/49 76/154/49
f 85/169/34 77/156/34 102/191/34
f 97/185/31 101/190/31 71/147/31
f 113/208/34 86/170/34 93/181/34
f 111/205/31 68/142/31 98/186/31
f 128/238/50 100/188/50 106/197/50
f 101/190/31 100/189/31 128/239/31
f 87/173/31 98/186/31 97/185/31
f 86/170/34 85/169/34 116/215/34
f 102/191/34 77/156/34 79/159/34
f 122/226/51 68/143/51 70/145/51
f 130/242/51 160/278/51 131/243/51
f 133/245/50 155/271/50 134/246/50
f 136/248/49 158/276/49 137/250/49
f 139/252/48 154/270/48 140/254/48
f 142/257/47 159/277/47 143/258/47
f 145/260/46 156/272/46 146/261/46
f 148/263/45 161/279/45 149/264/45
f 151/266/44 157/274/44 152/268/44
f 154/270/43 130/242/43 132/244/43
f 155/271/42 136/248/42 138/251/42
f 156/272/41 148/263/41 150/265/41
f 157/273/40 142/257/40 144/259/40
f 158/275/39 145/260/39 147/262/39
f 159/277/38 133/245/38 135/247/38
f 160/278/37 151/266/37 153/269/37
f 161/279/36 139/253/36 141/255/36
f 108/200/51 70/145/51 160/278/51
f 72/148/50 106/197/50 155/271/50
f 105/196/49 76/154/49 158/276/49
f 66/139/48 109/201/48 154/270/48
f 88/174/47 73/149/47 159/277/47
f 75/153/46 92/180/46 156/272/46
f 91/179/45 67/141/45 161/279/45
f 69/144/44 89/175/44 157/274/44
f 109/201/43 108/200/43 130/242/43
f 106/197/42 105/196/42 136/248/42
f 92/180/41 91/179/41 148/263/41
f 89/176/40 88/174/40 142/257/40
f 76/155/39 75/153/39 145/260/39
f 73/149/38 72/148/38 133/245/38
f 70/145/37 69/144/37 151/266/37
f 67/141/36 66/140/36 139/253/36
f 149/264/36 141/255/36 123/229/36
f 131/243/37 153/269/37 112/207/37
f 143/258/38 135/247/38 78/158/38
f 137/249/39 147/262/39 125/233/39
f 152/267/40 144/259/40 162/281/40
f 146/261/41 150/265/41 121/224/41
f 134/246/42 138/251/42 129/241/42
f 140/254/43 132/244/43 127/237/43
f 153/269/44 152/268/44 84/168/44
f 150/265/45 149/264/45 124/231/45
f 147/262/46 146/261/46 120/222/46
f 144/259/47 143/258/47 118/218/47
f 141/256/48 140/254/48 110/203/48
f 138/251/49 137/250/49 103/194/49
f 135/247/50 134/246/50 79/160/50
f 132/244/51 131/243/51 113/209/51
