# Blender 3.1.2
# www.blender.org
mtllib player.mtl
o 立方体
v -0.500000 2.776557 0.500000
v -0.500000 3.776557 0.500000
v -0.500000 2.776557 -0.500000
v -0.500000 3.776557 -0.500000
v 0.500000 2.776557 0.500000
v 0.500000 3.776557 0.500000
v 0.500000 2.776557 -0.500000
v 0.500000 3.776557 -0.500000
v -0.572933 2.703625 -0.296650
v -0.609568 2.666990 -0.000000
v -0.572933 2.703625 0.296650
v -0.572933 2.979908 0.572933
v -0.609568 3.276557 0.609568
v -0.572933 3.573207 0.572933
v -0.572933 3.849490 0.296650
v -0.609568 3.886125 0.000000
v -0.572933 3.849490 -0.296650
v -0.572933 3.573207 -0.572933
v -0.609568 3.276557 -0.609568
v -0.572933 2.979908 -0.572933
v 0.296650 2.703625 -0.572933
v 0.000000 2.666990 -0.609568
v -0.296650 2.703625 -0.572933
v -0.296650 3.849490 -0.572933
v -0.000000 3.886125 -0.609568
v 0.296650 3.849490 -0.572933
v 0.572933 3.573207 -0.572933
v 0.609568 3.276557 -0.609568
v 0.572933 2.979908 -0.572933
v 0.572933 2.703625 0.296650
v 0.609568 2.666990 0.000000
v 0.572933 2.703625 -0.296650
v 0.572933 3.849490 -0.296650
v 0.609568 3.886125 0.000000
v 0.572933 3.849490 0.296650
v 0.572933 3.573207 0.572933
v 0.609568 3.276557 0.609568
v 0.572933 2.979908 0.572933
v -0.296650 2.703625 0.572933
v -0.000000 2.666990 0.609568
v 0.296650 2.703625 0.572933
v 0.296650 3.849490 0.572933
v -0.000000 3.886125 0.609568
v -0.296650 3.849490 0.572933
v -0.728990 2.960400 0.316157
v -0.781829 3.276557 0.333140
v -0.728990 3.592715 0.316157
v -0.781829 2.943417 -0.000000
v -0.839506 3.276557 0.000000
v -0.781829 3.609698 0.000000
v -0.728990 2.960400 -0.316157
v -0.781829 3.276557 -0.333140
v -0.728990 3.592715 -0.316157
v -0.256517 3.037826 -0.773861
v -0.254085 3.276557 -0.811799
v -0.256517 3.515289 -0.773861
v 0.000000 3.039870 -0.805485
v 0.000000 3.276557 -1.098689
v 0.000000 3.513245 -0.805485
v 0.256517 3.037826 -0.773861
v 0.254085 3.276557 -0.811799
v 0.256517 3.515289 -0.773861
v 0.728990 2.960400 -0.316157
v 0.781829 3.276557 -0.333140
v 0.728990 3.592715 -0.316157
v 0.781829 2.943417 0.000000
v 0.839506 3.276557 0.000000
v 0.781829 3.609698 -0.000000
v 0.728990 2.960400 0.316157
v 0.781829 3.276557 0.333140
v 0.728990 3.592715 0.316157
v 0.316157 2.960400 0.728990
v 0.333140 3.276557 0.781829
v 0.316157 3.592715 0.728990
v -0.000000 2.943417 0.781829
v -0.000000 3.276557 0.839506
v 0.000000 3.609698 0.781829
v -0.316157 2.960400 0.728990
v -0.333140 3.276557 0.781829
v -0.316157 3.592715 0.728990
v -0.316157 2.547567 -0.316157
v -0.000000 2.494729 -0.333140
v 0.316157 2.547567 -0.316157
v -0.333140 2.494729 0.000000
v 0.000000 2.437051 0.000000
v 0.333140 2.494729 -0.000000
v -0.316157 2.547567 0.316157
v 0.000000 2.494729 0.333140
v 0.316157 2.547568 0.316157
v 0.316157 4.005548 -0.316157
v 0.000000 4.058386 -0.333140
v -0.316157 4.005548 -0.316157
v 0.333140 4.058386 0.000000
v -0.000000 4.116064 0.000000
v -0.333140 4.058386 -0.000000
v 0.316157 4.005548 0.316157
v -0.000000 4.058386 0.333140
v -0.316157 4.005548 0.316157
vn -0.9708 -0.1681 0.1713
vn -0.9708 0.1713 0.1681
vn -0.9708 -0.1681 -0.1713
vn -0.9708 0.1713 -0.1681
vn -0.7501 -0.4896 0.4446
vn -0.8367 -0.1678 0.5213
vn -0.8367 0.1677 0.5214
vn -0.7501 0.4446 0.4896
vn -0.8367 0.5213 0.1678
vn -0.8367 0.5213 -0.1678
vn -0.7501 0.4446 -0.4896
vn -0.8367 0.1677 -0.5214
vn -0.8367 -0.1678 -0.5213
vn -0.7501 -0.4896 -0.4446
vn -0.8367 -0.5214 -0.1677
vn -0.8367 -0.5214 0.1677
vn -0.1197 -0.1546 -0.9807
vn -0.5785 0.6347 -0.5124
vn 0.1197 -0.1546 -0.9807
vn 0.5785 0.6347 -0.5124
vn -0.4386 -0.4386 -0.7844
vn -0.5066 -0.1670 -0.8459
vn -0.4902 0.1319 -0.8616
vn -0.4275 0.4275 -0.7965
vn -0.1048 0.4626 -0.8804
vn 0.1048 0.4626 -0.8804
vn 0.4275 0.4275 -0.7965
vn 0.4902 0.1319 -0.8616
vn 0.5066 -0.1670 -0.8459
vn 0.4386 -0.4386 -0.7844
vn 0.1664 -0.4933 -0.8538
vn -0.1664 -0.4933 -0.8538
vn 0.9708 -0.1681 -0.1713
vn 0.9708 0.1713 -0.1681
vn 0.9708 -0.1681 0.1713
vn 0.9708 0.1713 0.1681
vn 0.7501 -0.4896 -0.4446
vn 0.8367 -0.1678 -0.5213
vn 0.8367 0.1677 -0.5214
vn 0.7501 0.4446 -0.4896
vn 0.8367 0.5213 -0.1678
vn 0.8367 0.5213 0.1678
vn 0.7501 0.4446 0.4896
vn 0.8367 0.1677 0.5214
vn 0.8367 -0.1678 0.5213
vn 0.7501 -0.4896 0.4446
vn 0.8367 -0.5214 0.1677
vn 0.8367 -0.5214 -0.1677
vn 0.1713 -0.1681 0.9708
vn 0.1681 0.1713 0.9708
vn -0.1713 -0.1681 0.9708
vn -0.1681 0.1713 0.9708
vn 0.4446 -0.4896 0.7501
vn 0.5213 -0.1678 0.8367
vn 0.5214 0.1677 0.8367
vn 0.4896 0.4446 0.7501
vn 0.1678 0.5213 0.8367
vn -0.1678 0.5213 0.8367
vn -0.4896 0.4446 0.7501
vn -0.5214 0.1677 0.8367
vn -0.5213 -0.1678 0.8367
vn -0.4446 -0.4896 0.7501
vn -0.1677 -0.5214 0.8367
vn 0.1677 -0.5214 0.8367
vn -0.1681 -0.9708 -0.1713
vn 0.1713 -0.9708 -0.1681
vn -0.1681 -0.9708 0.1713
vn 0.1713 -0.9708 0.1681
vn -0.4896 -0.7501 -0.4446
vn -0.1678 -0.8367 -0.5213
vn 0.1677 -0.8367 -0.5214
vn 0.4446 -0.7501 -0.4896
vn 0.5213 -0.8367 -0.1678
vn 0.5213 -0.8367 0.1678
vn 0.4446 -0.7501 0.4896
vn 0.1677 -0.8367 0.5214
vn -0.1678 -0.8367 0.5213
vn -0.4896 -0.7501 0.4446
vn -0.5214 -0.8367 0.1677
vn -0.5214 -0.8367 -0.1677
vn 0.1681 0.9708 -0.1713
vn -0.1713 0.9708 -0.1681
vn 0.1681 0.9708 0.1713
vn -0.1713 0.9708 0.1681
vn 0.4896 0.7501 -0.4446
vn 0.1678 0.8367 -0.5213
vn -0.1677 0.8367 -0.5214
vn -0.4446 0.7501 -0.4896
vn -0.5213 0.8367 -0.1678
vn -0.5213 0.8367 0.1678
vn -0.4446 0.7501 0.4896
vn -0.1677 0.8367 0.5214
vn 0.1678 0.8367 0.5213
vn 0.4896 0.7501 0.4446
vn 0.5214 0.8367 0.1677
vn 0.5214 0.8367 -0.1677
vn -0.9708 -0.1713 0.1681
vn -0.9708 0.1681 0.1713
vn -0.9708 -0.1713 -0.1681
vn -0.9708 0.1681 -0.1713
vn -0.7501 -0.4446 0.4896
vn -0.8367 -0.1677 0.5214
vn -0.8367 0.1678 0.5213
vn -0.7501 0.4896 0.4446
vn -0.8367 0.5214 0.1677
vn -0.8367 0.5214 -0.1677
vn -0.7501 0.4896 -0.4446
vn -0.8367 0.1678 -0.5213
vn -0.8367 -0.1677 -0.5214
vn -0.7501 -0.4446 -0.4896
vn -0.8367 -0.5213 -0.1678
vn -0.8367 -0.5213 0.1678
vn -0.5785 -0.6347 -0.5124
vn -0.1197 0.1546 -0.9807
vn 0.5785 -0.6347 -0.5124
vn 0.1197 0.1546 -0.9807
vn -0.4275 -0.4275 -0.7965
vn -0.4902 -0.1319 -0.8616
vn -0.5066 0.1670 -0.8459
vn -0.4386 0.4386 -0.7844
vn -0.1664 0.4933 -0.8538
vn 0.1664 0.4933 -0.8538
vn 0.4386 0.4386 -0.7844
vn 0.5066 0.1670 -0.8459
vn 0.4902 -0.1319 -0.8616
vn 0.4275 -0.4275 -0.7965
vn 0.1048 -0.4626 -0.8804
vn -0.1048 -0.4626 -0.8804
vn 0.9708 -0.1713 -0.1681
vn 0.9708 0.1681 -0.1713
vn 0.9708 -0.1713 0.1681
vn 0.9708 0.1681 0.1713
vn 0.7501 -0.4446 -0.4896
vn 0.8367 -0.1677 -0.5214
vn 0.8367 0.1678 -0.5213
vn 0.7501 0.4896 -0.4446
vn 0.8367 0.5214 -0.1677
vn 0.8367 0.5214 0.1677
vn 0.7501 0.4896 0.4446
vn 0.8367 0.1678 0.5213
vn 0.8367 -0.1677 0.5214
vn 0.7501 -0.4446 0.4896
vn 0.8367 -0.5213 0.1678
vn 0.8367 -0.5213 -0.1678
vn 0.1681 -0.1713 0.9708
vn 0.1713 0.1681 0.9708
vn -0.1681 -0.1713 0.9708
vn -0.1713 0.1681 0.9708
vn 0.4896 -0.4446 0.7501
vn 0.5214 -0.1677 0.8367
vn 0.5213 0.1678 0.8367
vn 0.4446 0.4896 0.7501
vn 0.1677 0.5214 0.8367
vn -0.1677 0.5214 0.8367
vn -0.4446 0.4896 0.7501
vn -0.5213 0.1678 0.8367
vn -0.5214 -0.1677 0.8367
vn -0.4896 -0.4446 0.7501
vn -0.1678 -0.5213 0.8367
vn 0.1678 -0.5213 0.8367
vn -0.1713 -0.9708 -0.1681
vn 0.1681 -0.9708 -0.1713
vn -0.1713 -0.9708 0.1681
vn 0.1681 -0.9708 0.1713
vn -0.4446 -0.7501 -0.4896
vn -0.1677 -0.8367 -0.5214
vn 0.1678 -0.8367 -0.5213
vn 0.4896 -0.7501 -0.4446
vn 0.5214 -0.8367 -0.1677
vn 0.5214 -0.8367 0.1677
vn 0.4896 -0.7501 0.4446
vn 0.1678 -0.8367 0.5213
vn -0.1677 -0.8367 0.5214
vn -0.4446 -0.7501 0.4896
vn -0.5213 -0.8367 0.1678
vn -0.5213 -0.8367 -0.1678
vn 0.1713 0.9708 -0.1681
vn -0.1681 0.9708 -0.1713
vn 0.1713 0.9708 0.1681
vn -0.1681 0.9708 0.1713
vn 0.4446 0.7501 -0.4896
vn 0.1677 0.8367 -0.5214
vn -0.1678 0.8367 -0.5213
vn -0.4896 0.7501 -0.4446
vn -0.5214 0.8367 -0.1677
vn -0.5214 0.8367 0.1677
vn -0.4896 0.7501 0.4446
vn -0.1678 0.8367 0.5213
vn 0.1677 0.8367 0.5214
vn 0.4446 0.7501 0.4896
vn 0.5213 0.8367 0.1678
vn 0.5213 0.8367 -0.1678
vt 0.203233 0.745146
vt 0.585868 0.688488
vt 0.637621 0.729800
vt 0.637094 0.818589
vt 0.127854 0.619823
vt 0.000000 0.690825
vt 0.261890 0.790255
vt 0.440948 0.667900
vt 0.798466 0.650345
vt 0.782498 0.708903
vt 0.672362 0.957255
vt 0.358629 0.683300
vt 0.151782 0.642838
vt 0.586920 0.760372
vt 0.178464 0.678775
vt 0.196505 0.717192
vt 0.590700 0.720701
vt 0.182007 0.771434
vt 0.602164 0.629014
vt 0.596667 0.664025
vt 0.146477 0.798449
vt 0.606772 0.662493
vt 0.106152 0.813559
vt 0.621252 0.700625
vt 0.050002 0.798551
vt 0.627339 0.757288
vt 0.022593 0.765336
vt 0.203233 0.749361
vt 0.620202 0.787511
vt 0.005279 0.724197
vt 0.232976 0.775727
vt 0.019777 0.669956
vt 0.277118 0.811879
vt 0.054580 0.645663
vt 0.095633 0.627830
vt 0.665423 0.802526
vt 0.660810 0.925954
vt 0.648147 0.883261
vt 0.133700 0.597950
vt 0.639885 0.843684
vt 0.281323 0.773262
vt 0.309901 0.743923
vt 0.338719 0.709805
vt 0.387969 0.689323
vt 0.781602 0.955304
vt 0.847121 0.803808
vt 0.891755 0.803808
vt 0.747489 0.961505
vt 0.705836 0.961418
vt 0.959212 0.659241
vt 0.424641 0.697110
vt 0.970330 0.702468
vt 0.628414 1.000000
vt 0.410242 0.735272
vt 0.968615 0.745498
vt 0.651866 0.978866
vt 0.802751 0.769405
vt 0.343827 0.653171
vt 0.321171 0.618968
vt 0.793860 0.727904
vt 0.793348 0.733343
vt 0.793348 0.683149
vt 0.297400 0.595007
vt 0.787261 0.676680
vt 0.828961 0.637217
vt 0.872434 0.626565
vt 0.423406 0.610227
vt 0.914841 0.624838
vt 0.430607 0.640434
vt 0.559479 0.681647
vt 0.518036 0.674206
vt 0.473498 0.669432
vt 0.756123 0.715800
vt 0.714696 0.723329
vt 0.670168 0.728198
vt 0.163596 0.743666
vt 0.123930 0.770205
vt 0.082752 0.788562
vt 0.596667 0.727910
vt 0.141411 0.704801
vt 0.098245 0.730597
vt 0.056225 0.752109
vt 0.115933 0.664422
vt 0.073706 0.686705
vt 0.035089 0.709318
vt 0.076224 0.595007
vt 0.697570 0.835187
vt 0.730709 0.831059
vt 0.350838 0.810930
vt 0.042865 0.607113
vt 0.015178 0.628908
vt 0.328172 0.799636
vt 0.709017 0.869065
vt 0.397867 0.811879
vt 0.759075 0.851131
vt 0.355629 0.775367
vt 0.715664 0.906327
vt 0.399998 0.756579
vt 0.748631 0.901525
vt 0.377803 0.744764
vt 0.776637 0.901407
vt 0.691480 0.996829
vt 0.936498 0.757368
vt 0.734867 1.000000
vt 0.892609 0.767678
vt 0.844971 0.770561
vt 0.381382 0.646820
vt 0.935551 0.712294
vt 0.889082 0.720604
vt 0.839107 0.726196
vt 0.399998 0.669877
vt 0.926477 0.665439
vt 0.882050 0.670812
vt 0.834949 0.678632
vt 0.473001 0.628520
vt 0.745095 0.628256
vt 0.468964 0.595114
vt 0.861304 0.595007
vt 0.815862 0.608886
vt 0.752270 0.671230
vt 0.686113 0.595008
vt 0.520681 0.630080
vt 0.519083 0.595007
vt 0.697416 0.630350
vt 0.707549 0.675427
vt 0.640319 0.608123
vt 0.564637 0.641538
vt 0.648567 0.642179
vt 0.660663 0.684443
vt 0.601900 0.856157
vt 0.535541 0.802589
vt 0.172814 0.619774
vt 0.489726 0.802589
vt 0.607451 0.899644
vt 0.443905 0.789571
vt 0.624200 0.943837
vt 0.548638 0.769215
vt 0.203233 0.656275
vt 0.500954 0.767222
vt 0.596667 0.963444
vt 0.452080 0.755497
vt 0.555722 0.726226
vt 0.510991 0.722123
vt 0.464086 0.713207
vt 0.307791 0.677425
vt 0.274228 0.711170
vt 0.246622 0.745054
vt 0.280387 0.642880
vt 0.243458 0.676618
vt 0.715912 0.802526
vt 0.215932 0.714142
vt 0.665792 0.802526
vt 0.761366 0.755898
vt 0.258312 0.615437
vt 0.222091 0.645852
vt 0.717435 0.767450
vt 0.669759 0.769112
s 0
usemtl マテリアル.002
f 45/76/1 49/81/1 48/80/1
f 47/78/2 49/81/2 46/77/2
f 49/81/3 51/83/3 48/80/3
f 49/81/4 53/85/4 52/84/4
f 1/1/5 45/76/5 11/16/5
f 12/18/6 46/77/6 45/76/6
f 14/23/7 46/77/7 13/21/7
f 2/3/8 47/79/8 14/24/8
f 15/25/9 50/82/9 47/78/9
f 50/82/10 17/30/10 53/85/10
f 53/85/11 4/6/11 18/32/11
f 52/84/12 18/32/12 19/34/12
f 52/84/13 20/35/13 51/83/13
f 51/83/14 3/5/14 9/13/14
f 48/80/15 9/13/15 10/15/15
f 11/16/16 48/80/16 10/15/16
f 55/88/17 57/93/17 54/87/17
f 55/89/18 59/96/18 58/94/18
f 57/93/19 61/99/19 60/97/19
f 59/96/20 61/98/20 58/94/20
f 20/36/21 23/40/21 3/4/21
f 19/34/22 54/86/22 20/35/22
f 19/34/23 56/91/23 55/90/23
f 18/33/24 24/41/24 56/92/24
f 56/92/25 25/42/25 59/96/25
f 25/42/26 62/100/26 59/96/26
f 26/43/27 27/44/27 62/100/27
f 62/101/28 28/48/28 61/99/28
f 60/97/29 28/48/29 29/49/29
f 21/37/30 29/49/30 7/11/30
f 22/38/31 60/97/31 21/37/31
f 54/87/32 22/38/32 23/40/32
f 63/103/33 67/109/33 66/108/33
f 65/106/34 67/109/34 64/105/34
f 67/109/35 69/112/35 66/108/35
f 67/109/36 71/114/36 70/113/36
f 7/11/37 63/102/37 32/56/37
f 29/49/38 64/104/38 63/102/38
f 27/46/39 64/105/39 28/47/39
f 8/12/40 65/107/40 27/44/40
f 33/57/41 68/110/41 65/106/41
f 68/110/42 35/62/42 71/114/42
f 71/114/43 6/9/43 36/65/43
f 70/113/44 36/65/44 37/66/44
f 70/113/45 38/68/45 69/112/45
f 69/111/46 5/8/46 30/51/46
f 66/108/47 30/50/47 31/52/47
f 32/55/48 66/108/48 31/52/48
f 72/115/49 76/123/49 75/122/49
f 74/120/50 76/124/50 73/116/50
f 76/124/51 78/126/51 75/121/51
f 76/124/52 80/129/52 79/128/52
f 5/8/53 72/115/53 41/72/53
f 38/69/54 73/117/54 72/115/54
f 36/65/55 73/118/55 37/66/55
f 6/10/56 74/120/56 36/64/56
f 42/73/57 77/125/57 74/120/57
f 77/125/58 44/75/58 80/129/58
f 80/129/59 2/3/59 14/24/59
f 79/128/60 14/24/60 13/22/60
f 79/128/61 12/19/61 78/126/61
f 78/127/62 1/2/62 39/70/62
f 75/122/63 39/70/63 40/71/63
f 41/72/64 75/122/64 40/71/64
f 81/131/65 85/139/65 84/137/65
f 83/135/66 85/139/66 82/133/66
f 85/139/67 87/142/67 84/137/67
f 85/139/68 89/144/68 88/143/68
f 3/5/69 81/132/69 9/13/69
f 23/40/70 82/134/70 81/130/70
f 21/37/71 82/134/71 22/38/71
f 7/11/72 83/136/72 21/37/72
f 32/56/73 86/140/73 83/136/73
f 86/141/74 30/51/74 89/144/74
f 89/144/75 5/8/75 41/72/75
f 88/143/76 41/72/76 40/71/76
f 88/143/77 39/70/77 87/142/77
f 87/142/78 1/2/78 11/17/78
f 84/137/79 11/17/79 10/14/79
f 9/13/80 84/138/80 10/15/80
f 90/145/81 94/149/81 93/148/81
f 92/147/82 94/149/82 91/146/82
f 94/149/83 96/154/83 93/148/83
f 94/150/84 98/157/84 97/156/84
f 8/12/85 90/145/85 33/58/85
f 26/43/86 91/146/86 90/145/86
f 24/41/87 91/146/87 25/42/87
f 4/7/88 92/147/88 24/41/88
f 17/31/89 95/151/89 92/147/89
f 95/152/90 15/26/90 98/157/90
f 98/157/91 2/3/91 44/75/91
f 97/156/92 44/75/92 43/74/92
f 97/156/93 42/73/93 96/153/93
f 96/153/94 6/10/94 35/61/94
f 93/148/95 35/63/95 34/59/95
f 33/58/96 93/148/96 34/59/96
f 45/76/97 46/77/97 49/81/97
f 47/78/98 50/82/98 49/81/98
f 49/81/99 52/84/99 51/83/99
f 49/81/100 50/82/100 53/85/100
f 1/1/101 12/18/101 45/76/101
f 12/18/102 13/21/102 46/77/102
f 14/23/103 47/78/103 46/77/103
f 2/3/104 15/26/104 47/79/104
f 15/25/105 16/27/105 50/82/105
f 50/82/106 16/27/106 17/30/106
f 53/85/107 17/30/107 4/6/107
f 52/84/108 53/85/108 18/32/108
f 52/84/109 19/34/109 20/35/109
f 51/83/110 20/35/110 3/5/110
f 48/80/111 51/83/111 9/13/111
f 11/16/112 45/76/112 48/80/112
f 55/88/113 58/95/113 57/93/113
f 55/89/114 56/92/114 59/96/114
f 57/93/115 58/95/115 61/99/115
f 59/96/116 62/100/116 61/98/116
f 20/36/117 54/87/117 23/40/117
f 19/34/118 55/90/118 54/86/118
f 19/34/119 18/32/119 56/91/119
f 18/33/120 4/7/120 24/41/120
f 56/92/121 24/41/121 25/42/121
f 25/42/122 26/43/122 62/100/122
f 26/43/123 8/12/123 27/44/123
f 62/101/124 27/45/124 28/48/124
f 60/97/125 61/99/125 28/48/125
f 21/37/126 60/97/126 29/49/126
f 22/38/127 57/93/127 60/97/127
f 54/87/128 57/93/128 22/38/128
f 63/103/129 64/105/129 67/109/129
f 65/106/130 68/110/130 67/109/130
f 67/109/131 70/113/131 69/112/131
f 67/109/132 68/110/132 71/114/132
f 7/11/133 29/49/133 63/102/133
f 29/49/134 28/48/134 64/104/134
f 27/46/135 65/106/135 64/105/135
f 8/12/136 33/58/136 65/107/136
f 33/57/137 34/60/137 68/110/137
f 68/110/138 34/60/138 35/62/138
f 71/114/139 35/62/139 6/9/139
f 70/113/140 71/114/140 36/65/140
f 70/113/141 37/66/141 38/68/141
f 69/111/142 38/69/142 5/8/142
f 66/108/143 69/112/143 30/50/143
f 32/55/144 63/103/144 66/108/144
f 72/115/145 73/117/145 76/123/145
f 74/120/146 77/125/146 76/124/146
f 76/124/147 79/128/147 78/126/147
f 76/124/148 77/125/148 80/129/148
f 5/8/149 38/69/149 72/115/149
f 38/69/150 37/67/150 73/117/150
f 36/65/151 74/119/151 73/118/151
f 6/10/152 42/73/152 74/120/152
f 42/73/153 43/74/153 77/125/153
f 77/125/154 43/74/154 44/75/154
f 80/129/155 44/75/155 2/3/155
f 79/128/156 80/129/156 14/24/156
f 79/128/157 13/22/157 12/19/157
f 78/127/158 12/20/158 1/2/158
f 75/122/159 78/127/159 39/70/159
f 41/72/160 72/115/160 75/122/160
f 81/131/161 82/133/161 85/139/161
f 83/135/162 86/141/162 85/139/162
f 85/139/163 88/143/163 87/142/163
f 85/139/164 86/141/164 89/144/164
f 3/5/165 23/39/165 81/132/165
f 23/40/166 22/38/166 82/134/166
f 21/37/167 83/136/167 82/134/167
f 7/11/168 32/56/168 83/136/168
f 32/56/169 31/53/169 86/140/169
f 86/141/170 31/54/170 30/51/170
f 89/144/171 30/51/171 5/8/171
f 88/143/172 89/144/172 41/72/172
f 88/143/173 40/71/173 39/70/173
f 87/142/174 39/70/174 1/2/174
f 84/137/175 87/142/175 11/17/175
f 9/13/176 81/132/176 84/138/176
f 90/145/177 91/146/177 94/149/177
f 92/147/178 95/151/178 94/149/178
f 94/149/179 97/155/179 96/154/179
f 94/150/180 95/152/180 98/157/180
f 8/12/181 26/43/181 90/145/181
f 26/43/182 25/42/182 91/146/182
f 24/41/183 92/147/183 91/146/183
f 4/7/184 17/31/184 92/147/184
f 17/31/185 16/28/185 95/151/185
f 95/152/186 16/29/186 15/26/186
f 98/157/187 15/26/187 2/3/187
f 97/156/188 98/157/188 44/75/188
f 97/156/189 43/74/189 42/73/189
f 96/153/190 42/73/190 6/10/190
f 93/148/191 96/154/191 35/63/191
f 33/58/192 90/145/192 93/148/192
o 立方体.001
v -0.576821 -0.006416 0.337029
v -0.453083 2.314104 0.337029
v -0.576821 -0.006416 -0.337029
v -0.453083 2.314104 -0.337029
v 0.576821 -0.006416 0.337029
v 0.453083 2.314104 0.337029
v 0.576821 -0.006416 -0.337029
v 0.453083 2.314104 -0.337029
v 0.000000 -0.006416 -0.337029
v 0.000000 2.481897 -0.337029
v 0.000000 -0.006416 0.337029
v 0.000000 2.481897 0.337029
v -0.288410 -0.006416 -0.337029
v -0.252618 2.439571 0.337029
v -0.252618 2.439571 -0.337029
v -0.288410 -0.006416 0.337029
v 0.252618 2.439571 -0.337029
v 0.288410 -0.006416 0.337029
v 0.288410 -0.006416 -0.337029
v 0.252618 2.439571 0.337029
v -0.576821 1.890754 0.337029
v -0.576821 1.890754 -0.337029
v 0.576821 1.890754 -0.337029
v 0.576821 1.890754 0.337029
v 0.000000 1.890754 0.337029
v 0.000000 1.890754 -0.337029
v -0.288410 1.890754 -0.337029
v -0.288410 1.890754 0.337029
v 0.288410 1.890754 0.337029
v 0.288410 1.890754 -0.337029
v -0.544199 2.097731 0.337029
v -0.544199 2.097731 -0.337029
v 0.544199 2.097731 -0.337029
v 0.544199 2.097731 0.337029
v 0.000000 2.186325 0.337029
v 0.000000 2.186325 -0.337029
v -0.288410 2.186325 -0.337029
v -0.288410 2.186325 0.337029
v 0.288410 2.186325 0.337029
v 0.288410 2.186325 -0.337029
vn -0.9216 0.3881 -0.0000
vn -0.0000 -0.0000 -1.0000
vn 0.9216 0.3881 -0.0000
vn -0.0000 -0.0000 1.0000
vn -0.0000 -1.0000 -0.0000
vn -0.5305 0.8477 -0.0000
vn 0.1652 0.9863 -0.0000
vn -0.1652 0.9863 -0.0000
vn 0.5305 0.8477 -0.0000
vn 1.0000 -0.0000 -0.0000
vn -1.0000 -0.0000 -0.0000
vn 0.9878 0.1557 -0.0000
vn -0.9878 0.1557 -0.0000
vt 0.855367 0.595007
vt 0.000000 0.297504
vt 0.297504 0.595007
vt 0.576435 0.595007
vt 0.265594 0.317565
vt 0.828692 0.297504
vt 0.000000 0.000000
vt 0.297504 0.297504
vt 0.855367 0.297504
vt 0.576435 0.297504
vt 0.828692 0.000000
vt 0.329413 0.020061
vt 0.000000 0.595007
vt 0.297504 0.297504
vt 0.576435 0.297504
vt 0.297504 0.297504
vt 0.031910 0.317565
vt 0.595007 0.297504
vt 0.576435 0.595007
vt 0.297504 0.000000
vt 0.595007 0.297504
vt 0.595007 0.000000
vt 0.563098 0.020061
vt 0.297504 0.595007
vt 0.148752 0.000000
vt 0.446256 0.297504
vt 0.711850 0.000000
vt 0.446256 0.000000
vt 0.148752 0.297504
vt 0.148752 0.595007
vt 0.711850 0.297504
vt 0.148752 0.297504
vt 0.074376 0.000000
vt 0.371880 0.297504
vt 0.776995 0.297504
vt 0.213898 0.302564
vt 0.381110 0.005060
vt 0.776995 0.000000
vt 0.074376 0.297504
vt 0.223128 0.595007
vt 0.646704 0.000000
vt 0.511401 0.005060
vt 0.223128 0.297504
vt 0.074376 0.595007
vt 0.223128 0.000000
vt 0.520632 0.297504
vt 0.083606 0.302564
vt 0.646704 0.297504
vt 0.297504 0.368181
vt 0.631578 0.595007
vt 0.297504 0.070677
vt 0.631578 0.297504
vt 0.352647 0.595007
vt 0.595007 0.070677
vt 0.000000 0.368181
vt 0.352647 0.297504
vt 0.148752 0.368181
vt 0.446256 0.070677
vt 0.371880 0.070677
vt 0.223128 0.368181
vt 0.074376 0.368181
vt 0.520632 0.070677
vt 0.289091 0.343435
vt 0.605791 0.595007
vt 0.305916 0.045931
vt 0.605791 0.297504
vt 0.326860 0.595007
vt 0.586595 0.045931
vt 0.008413 0.343435
vt 0.326860 0.297504
vt 0.148752 0.332842
vt 0.446256 0.035339
vt 0.371880 0.035339
vt 0.223128 0.332842
vt 0.074376 0.332842
vt 0.520632 0.035339
s 0
usemtl マテリアル.003
f 100/161/193 130/223/193 129/221/193
f 138/233/194 106/180/194 131/225/194
f 106/181/195 132/227/195 131/224/195
f 136/231/196 100/162/196 129/220/196
f 105/177/197 116/200/197 117/202/197
f 102/168/198 112/192/198 113/195/198
f 108/184/199 118/205/199 115/198/199
f 107/182/197 114/196/197 111/190/197
f 118/204/196 133/228/196 137/232/196
f 113/194/194 134/229/194 135/230/194
f 102/169/194 135/230/194 130/222/194
f 111/190/197 99/159/197 101/164/197
f 113/195/200 110/188/200 108/184/200
f 133/228/196 112/193/196 136/231/196
f 104/174/196 137/232/196 132/226/196
f 115/198/201 104/175/201 106/179/201
f 117/202/197 109/186/197 107/182/197
f 134/229/194 115/199/194 138/233/194
f 124/215/194 117/203/194 107/183/194
f 122/212/196 116/201/196 103/170/196
f 123/214/196 114/197/196 109/187/196
f 120/208/194 111/191/194 101/165/194
f 125/216/194 107/183/194 111/191/194
f 127/218/196 109/187/196 116/201/196
f 126/217/196 99/160/196 114/197/196
f 121/210/202 103/172/202 105/176/202
f 128/219/194 105/178/194 117/203/194
f 119/207/203 101/166/203 99/158/203
f 134/229/194 128/219/194 124/215/194
f 132/226/196 127/218/196 122/212/196
f 133/228/196 126/217/196 123/214/196
f 130/222/194 125/216/194 120/208/194
f 135/230/194 124/215/194 125/216/194
f 137/232/196 123/214/196 127/218/196
f 126/217/196 129/220/196 119/206/196
f 131/224/204 122/213/204 121/210/204
f 128/219/194 131/225/194 121/211/194
f 129/221/205 120/209/205 119/207/205
f 100/161/193 102/167/193 130/223/193
f 138/233/194 115/199/194 106/180/194
f 106/181/195 104/173/195 132/227/195
f 136/231/196 112/193/196 100/162/196
f 105/177/197 103/171/197 116/200/197
f 102/168/198 100/163/198 112/192/198
f 108/184/199 110/188/199 118/205/199
f 107/182/197 109/186/197 114/196/197
f 118/204/196 110/189/196 133/228/196
f 113/194/194 108/185/194 134/229/194
f 102/169/194 113/194/194 135/230/194
f 111/190/197 114/196/197 99/159/197
f 113/195/200 112/192/200 110/188/200
f 133/228/196 110/189/196 112/193/196
f 104/174/196 118/204/196 137/232/196
f 115/198/201 118/205/201 104/175/201
f 117/202/197 116/200/197 109/186/197
f 134/229/194 108/185/194 115/199/194
f 124/215/194 128/219/194 117/203/194
f 122/212/196 127/218/196 116/201/196
f 123/214/196 126/217/196 114/197/196
f 120/208/194 125/216/194 111/191/194
f 125/216/194 124/215/194 107/183/194
f 127/218/196 123/214/196 109/187/196
f 126/217/196 119/206/196 99/160/196
f 121/210/202 122/213/202 103/172/202
f 128/219/194 121/211/194 105/178/194
f 119/207/203 120/209/203 101/166/203
f 134/229/194 138/233/194 128/219/194
f 132/226/196 137/232/196 127/218/196
f 133/228/196 136/231/196 126/217/196
f 130/222/194 135/230/194 125/216/194
f 135/230/194 134/229/194 124/215/194
f 137/232/196 133/228/196 123/214/196
f 126/217/196 136/231/196 129/220/196
f 131/224/204 132/227/204 122/213/204
f 128/219/194 138/233/194 131/225/194
f 129/221/205 130/223/205 120/209/205
