# Blender v3.1.2 OBJ File: ''
# www.blender.org
mtllib space.mtl
o Cube
v 27.200001 8.000000 -1.000000
v 27.200001 -8.000000 -1.000000
v 27.200001 8.000000 1.000000
v 27.200001 -8.000000 1.000000
v -27.200001 8.000000 -1.000000
v -27.200001 -8.000000 -1.000000
v -27.200001 8.000000 1.000000
v -27.200001 -8.000000 1.000000
vt 0.919537 1.000000
vt 0.919537 0.000000
vt 0.956302 0.000000
vt 0.956302 1.000000
vt 0.055807 0.000000
vt 0.349925 0.000000
vt 0.349925 1.000000
vt 0.055807 1.000000
vt 0.993067 0.294118
vt 0.993067 0.588235
vt 0.956302 0.588235
vt 0.956302 0.294118
vt 0.882773 1.000000
vt 0.882773 0.000000
vt 0.919537 0.000000
vt 0.919537 1.000000
vt 0.993067 0.000000
vt 0.993067 0.294117
vt 0.956302 0.294117
vt 0.956302 0.000000
vt 0.588655 0.000000
vt 0.882773 0.000000
vt 0.882773 1.000000
vt 0.588655 1.000000
vn 0.0000 1.0000 0.0000
vn 0.0000 0.0000 1.0000
vn -1.0000 0.0000 0.0000
vn 0.0000 -1.0000 0.0000
vn 1.0000 0.0000 0.0000
vn 0.0000 0.0000 -1.0000
usemtl Material
s off
f 1/1/1 5/2/1 7/3/1 3/4/1
f 4/5/2 3/6/2 7/7/2 8/8/2
f 8/9/3 7/10/3 5/11/3 6/12/3
f 6/13/4 2/14/4 4/15/4 8/16/4
f 2/17/5 1/18/5 3/19/5 4/20/5
f 6/21/6 5/22/6 1/23/6 2/24/6
