# Blender 3.1.2
# www.blender.org
mtllib item.mtl
o 立方体
v 0.679662 -0.800000 -0.763350
v 0.679662 0.800000 -0.763350
v 0.679662 -0.800000 0.763350
v 0.679662 0.800000 0.763350
v -0.679662 -0.800000 -0.763350
v -0.679662 0.800000 -0.763350
v -0.679662 -0.800000 0.763350
v -0.679662 0.800000 0.763350
v 0.000000 -0.800000 1.000000
v 0.000000 0.800000 1.000000
v -0.000000 -0.800000 -1.000000
v -0.000000 0.800000 -1.000000
v 0.367895 -0.800000 0.926900
v 0.367894 0.800000 -0.926901
v 0.367895 0.800000 0.926900
v 0.367894 -0.800000 -0.926901
v -0.367894 0.800000 0.926901
v -0.367895 -0.800000 -0.926900
v -0.367894 -0.800000 0.926901
v -0.367895 0.800000 -0.926900
v 1.000000 -0.800000 -0.000000
v 1.000000 0.800000 -0.000000
v -1.000000 -0.800000 0.000000
v -1.000000 0.800000 0.000000
v 0.000000 0.800000 0.000000
v 0.000000 -0.800000 0.000000
v 0.500000 -0.800000 -0.000000
v 0.500000 0.800000 -0.000000
v -0.500000 0.800000 0.000000
v -0.500000 -0.800000 0.000000
v 0.943441 0.800000 0.366163
v -0.943441 -0.800000 0.366163
v 0.943441 -0.800000 0.366163
v -0.943441 0.800000 0.366163
v 0.000000 0.800000 0.500000
v 0.000000 -0.800000 0.500000
v 0.500000 -0.800000 0.500000
v 0.500000 0.800000 0.500000
v -0.500000 0.800000 0.500000
v -0.500000 -0.800000 0.500000
v 0.943441 -0.800000 -0.366163
v -0.943441 0.800000 -0.366163
v -0.000000 0.800000 -0.500000
v -0.000000 -0.800000 -0.500000
v 0.500000 -0.800000 -0.500000
v 0.500000 0.800000 -0.500000
v -0.500000 0.800000 -0.500000
v -0.500000 -0.800000 -0.500000
v 0.943441 0.800000 -0.366163
v -0.943441 -0.800000 -0.366163
v 0.098813 -0.200000 -1.408491
v 0.098813 0.200000 -1.408491
v 0.098813 -0.200000 -0.961004
v 0.098813 0.200000 -0.961004
v -0.098813 -0.200000 -1.408491
v -0.098813 0.200000 -1.408491
v -0.098813 -0.200000 -0.961004
v -0.098813 0.200000 -0.961004
v 0.224928 -0.200000 -1.414608
v 0.224928 0.200000 -1.414608
v 0.224928 -0.200000 -1.232544
v 0.224928 0.200000 -1.232544
v -0.224929 -0.200000 -1.414608
v -0.224929 0.200000 -1.414608
v -0.224929 -0.200000 -1.232544
v -0.224929 0.200000 -1.232544
vn 0.8330 -0.0000 0.5532
vn -0.4645 -0.0000 0.8855
vn -0.8330 -0.0000 -0.5532
vn 0.4645 -0.0000 -0.8855
vn -0.0000 -1.0000 -0.0000
vn -0.0000 1.0000 -0.0000
vn -0.1949 -0.0000 -0.9808
vn 0.1949 -0.0000 0.9808
vn 0.4645 -0.0000 0.8855
vn 0.1949 -0.0000 -0.9808
vn -0.4645 -0.0000 -0.8855
vn -0.1949 -0.0000 0.9808
vn -0.9883 -0.0000 0.1527
vn 0.9883 -0.0000 -0.1527
vn -0.8330 -0.0000 0.5532
vn 0.9883 -0.0000 0.1527
vn 0.8330 -0.0000 -0.5532
vn -0.9883 -0.0000 -0.1527
vn 1.0000 -0.0000 -0.0000
vn -0.0000 -0.0000 1.0000
vn -1.0000 -0.0000 -0.0000
vn -0.0000 -0.0000 -1.0000
vt 0.935688 0.143097
vt 0.842590 0.310350
vt 0.746472 0.438600
vt 0.935688 0.286193
vt 0.928515 0.000000
vt 0.825915 0.418303
vt 0.928515 0.143097
vt 0.729797 0.546553
vt 0.926838 0.286193
vt 0.746472 0.295503
vt 0.926838 0.429290
vt 0.842590 0.453447
vt 0.792591 0.856903
vt 0.729797 0.403456
vt 0.792591 1.000000
vt 0.825915 0.561400
vt 0.878238 0.000000
vt 0.775271 0.427613
vt 0.878238 0.143097
vt 0.775271 0.570710
vt 0.797116 0.286193
vt 0.876561 0.286193
vt 0.797116 0.429290
vt 0.876561 0.429290
vt 0.903387 0.000000
vt 0.802084 0.426462
vt 0.958037 0.286193
vt 0.770303 0.430441
vt 0.856903 0.429290
vt 0.903387 0.143097
vt 0.750056 0.561523
vt 0.958037 0.143097
vt 0.822331 0.295380
vt 0.856903 0.286193
vt 0.814940 1.000000
vt 0.858580 0.143097
vt 0.802084 0.569559
vt 0.901710 0.286193
vt 0.770303 0.287344
vt 0.814940 0.856903
vt 0.858580 0.000000
vt 0.750056 0.418426
vt 0.901710 0.429290
vt 0.822331 0.438477
vt 0.856903 0.367825
vt 0.877769 0.143097
vt 0.877769 0.286193
vt 0.715484 0.489078
vt 0.734672 0.856903
vt 0.715484 0.345981
vt 0.856903 0.510922
vt 0.734672 1.000000
vt 0.786193 0.500000
vt 0.786193 0.356903
vt 0.821548 0.362364
vt 0.750839 0.494539
vt 0.821548 0.505461
vt 0.750839 0.351442
vt 0.959497 0.143097
vt 0.715484 0.515587
vt 0.858580 0.286193
vt 0.758485 0.856903
vt 0.715484 0.372490
vt 0.959497 0.000000
vt 0.848905 0.393099
vt 0.858580 0.143097
vt 0.848905 0.536196
vt 0.758485 1.000000
vt 0.780732 0.535355
vt 0.780732 0.392258
vt 0.816087 0.397719
vt 0.745378 0.529894
vt 0.816087 0.540816
vt 0.745378 0.386797
vt 0.901582 0.143097
vt 0.856903 0.341316
vt 0.957820 0.429290
vt 0.856903 0.484413
vt 0.715484 1.000000
vt 0.791655 0.464645
vt 0.791655 0.321548
vt 0.827009 0.327009
vt 0.756300 0.459184
vt 0.827009 0.470106
vt 0.756300 0.316087
vt 0.901582 0.286193
vt 0.723482 0.463804
vt 0.957820 0.286193
vt 0.723482 0.320708
vt 0.715484 0.856903
vt 0.143097 0.000000
vt 0.143097 0.143097
vt 0.000000 0.429290
vt 0.143097 0.143097
vt 0.143097 0.286193
vt 0.429290 0.143097
vt 0.143097 0.143097
vt 0.000000 0.286193
vt 0.000000 0.000000
vt 0.000000 0.143097
vt 0.143097 0.286193
vt 0.429290 0.000000
vt 0.286193 0.143097
vt 0.143097 0.000000
vt 0.143097 0.429290
vt 0.143097 0.143097
vt 0.286193 0.286193
vt 0.286193 0.143097
vt 0.286193 0.000000
vt 0.000000 0.143097
vt 0.143097 0.286193
vt 0.286193 0.000000
vt 0.000000 0.286193
vt 0.286193 0.143097
vt 0.572387 0.143097
vt 0.429290 0.429290
vt 0.000000 0.715484
vt 0.572387 0.286193
vt 0.429290 0.572387
vt 0.715484 0.143097
vt 0.429290 0.429290
vt 0.000000 0.572387
vt 0.429290 0.143097
vt 0.429290 0.286193
vt 0.429290 0.572387
vt 0.715484 0.000000
vt 0.572387 0.429290
vt 0.429290 0.286193
vt 0.143097 0.715484
vt 0.429290 0.429290
vt 0.572387 0.572387
vt 0.572387 0.143097
vt 0.572387 0.286193
vt 0.286193 0.429290
vt 0.143097 0.572387
vt 0.572387 0.000000
vt 0.286193 0.572387
vt 0.572387 0.429290
s 0
usemtl マテリアル
f 31/59/1 3/5/1 33/64/1
f 17/35/2 7/13/2 19/40/2
f 42/77/3 5/9/3 50/88/3
f 14/27/4 1/1/4 16/32/4
f 48/85/5 5/10/5 18/39/5
f 46/83/6 2/3/6 14/28/6
f 43/80/6 20/44/6 47/84/6
f 44/81/5 16/33/5 45/82/5
f 20/43/7 11/22/7 18/38/7
f 15/30/8 9/17/8 13/25/8
f 4/7/9 13/25/9 3/5/9
f 45/82/5 1/2/5 41/76/5
f 43/80/6 14/28/6 12/23/6
f 12/24/10 16/34/10 11/22/10
f 6/11/11 18/38/11 5/9/11
f 47/84/6 6/12/6 42/78/6
f 44/81/5 18/39/5 11/21/5
f 10/19/12 19/41/12 9/17/12
f 40/74/5 26/54/5 36/70/5
f 34/67/6 29/57/6 24/51/6
f 38/72/6 25/53/6 35/69/6
f 33/65/5 27/55/5 21/45/5
f 36/70/5 27/55/5 37/71/5
f 35/69/6 29/57/6 39/73/6
f 31/60/6 28/56/6 38/72/6
f 32/63/5 30/58/5 40/74/5
f 34/68/13 23/49/13 32/62/13
f 49/86/14 21/46/14 41/75/14
f 8/15/15 32/62/15 7/13/15
f 7/14/5 40/74/5 19/42/5
f 4/8/6 38/72/6 15/31/6
f 17/37/6 35/69/6 39/73/6
f 13/26/5 36/70/5 37/71/5
f 3/6/5 37/71/5 33/65/5
f 15/31/6 35/69/6 10/20/6
f 8/16/6 39/73/6 34/67/6
f 19/42/5 36/70/5 9/18/5
f 22/47/16 33/66/16 21/46/16
f 2/4/17 41/75/17 1/1/17
f 30/58/5 44/81/5 26/54/5
f 29/57/6 42/78/6 24/51/6
f 28/56/6 43/80/6 25/53/6
f 27/55/5 41/76/5 21/45/5
f 26/54/5 45/82/5 27/55/5
f 25/53/6 47/84/6 29/57/6
f 28/56/6 49/87/6 46/83/6
f 30/58/5 50/89/5 48/85/5
f 24/52/18 50/90/18 23/49/18
f 31/59/1 4/7/1 3/5/1
f 17/35/2 8/15/2 7/13/2
f 42/77/3 6/11/3 5/9/3
f 14/27/4 2/4/4 1/1/4
f 48/85/5 50/89/5 5/10/5
f 46/83/6 49/87/6 2/3/6
f 43/80/6 12/23/6 20/44/6
f 44/81/5 11/21/5 16/33/5
f 20/43/7 12/24/7 11/22/7
f 15/30/8 10/19/8 9/17/8
f 4/7/9 15/30/9 13/25/9
f 45/82/5 16/33/5 1/2/5
f 43/80/6 46/83/6 14/28/6
f 12/24/10 14/29/10 16/34/10
f 6/11/11 20/43/11 18/38/11
f 47/84/6 20/44/6 6/12/6
f 44/81/5 48/85/5 18/39/5
f 10/19/12 17/36/12 19/41/12
f 40/74/5 30/58/5 26/54/5
f 34/67/6 39/73/6 29/57/6
f 38/72/6 28/56/6 25/53/6
f 33/65/5 37/71/5 27/55/5
f 36/70/5 26/54/5 27/55/5
f 35/69/6 25/53/6 29/57/6
f 31/60/6 22/48/6 28/56/6
f 32/63/5 23/50/5 30/58/5
f 34/68/13 24/52/13 23/49/13
f 49/86/14 22/47/14 21/46/14
f 8/15/15 34/68/15 32/62/15
f 7/14/5 32/63/5 40/74/5
f 4/8/6 31/60/6 38/72/6
f 17/37/6 10/20/6 35/69/6
f 13/26/5 9/18/5 36/70/5
f 3/6/5 13/26/5 37/71/5
f 15/31/6 38/72/6 35/69/6
f 8/16/6 17/37/6 39/73/6
f 19/42/5 40/74/5 36/70/5
f 22/47/16 31/61/16 33/66/16
f 2/4/17 49/86/17 41/75/17
f 30/58/5 48/85/5 44/81/5
f 29/57/6 47/84/6 42/78/6
f 28/56/6 46/83/6 43/80/6
f 27/55/5 45/82/5 41/76/5
f 26/54/5 44/81/5 45/82/5
f 25/53/6 43/80/6 47/84/6
f 28/56/6 22/48/6 49/87/6
f 30/58/5 23/50/5 50/89/5
f 24/52/18 42/79/18 50/90/18
usemtl マテリアル.001
f 52/94/19 53/99/19 51/91/19
f 54/101/20 57/110/20 53/97/20
f 58/114/21 55/104/21 57/109/21
f 56/107/22 51/92/22 55/103/22
f 57/111/5 51/93/5 53/98/5
f 54/102/6 56/108/6 58/112/6
f 52/94/19 54/100/19 53/99/19
f 54/101/20 58/113/20 57/110/20
f 58/114/21 56/106/21 55/104/21
f 56/107/22 52/95/22 51/92/22
f 57/111/5 55/105/5 51/93/5
f 54/102/6 52/96/6 56/108/6
usemtl マテリアル.002
f 60/118/19 61/123/19 59/115/19
f 62/125/20 65/134/20 61/121/20
f 66/138/21 63/128/21 65/133/21
f 64/131/22 59/116/22 63/127/22
f 65/135/5 59/117/5 61/122/5
f 62/126/6 64/132/6 66/136/6
f 60/118/19 62/124/19 61/123/19
f 62/125/20 66/137/20 65/134/20
f 66/138/21 64/130/21 63/128/21
f 64/131/22 60/119/22 59/116/22
f 65/135/5 63/129/5 59/117/5
f 62/126/6 60/120/6 64/132/6
